<?xml version="1.0" encoding="UTF-8"?>
<svg version="1.1" viewBox="0 0 800 800" width="200" height="200" xmlns="http://www.w3.org/2000/svg">
<path transform="translate(0)" d="m0 0h800v800h-800z" fill="#FDFDFD"/>
<path transform="translate(394,408)" d="m0 0h7l38 12 59 19 57 18 58 19 45 14 29 10 6 2v1h-590l1-2 13-4 27-9 35-11 162-52z" fill="#475770"/>
<path transform="translate(195,241)" d="m0 0 411 1 8 7 18 18 7 8 11 14v2h-500l2-4 10-13 11-12 7-8 13-12z" fill="#475770"/>
<path transform="translate(144,298)" d="m0 0h512l7 9 14 25 4 8v2h-238l-44-26-5 1-10 7-22 13-9 5h-234l1-4 10-19 11-18z" fill="#475770"/>
<path transform="translate(378,165)" d="m0 0h45l33 4 30 7 29 10 24 11 19 10 20 13 16 12 1 2h-390l5-5 10-8 15-10 21-12 21-10 24-9 25-7 24-5z" fill="#475770"/>
<path transform="translate(457,349)" d="m0 0h228l4 8 9 24-1 3h-182l-9-4-28-17-15-9-6-4z" fill="#475770"/>
<path transform="translate(115,349)" d="m0 0h225l-4 4-20 12-21 13-8 5-3 1h-179l-3-2 10-28z" fill="#475770"/>
<path transform="translate(526,390)" d="m0 0 174 1 3 8 3 13v6h-135l-11-6-14-8-13-8-7-5z" fill="#475770"/>
<path transform="translate(271,390)" d="m0 0 2 1-9 6-23 14-10 6-2 1h-135l1-10 4-16 1-1z" fill="#475770"/>
<path transform="translate(585,424)" d="m0 0 123 1 2 14-1 1h-102l-14-8-9-6z" fill="#475770"/>
<path transform="translate(159,424)" d="m0 0 57 1-4 4-15 9-5 2h-100l-2-1 1-11 1-3z" fill="#475770"/>
<path transform="translate(621,447)" d="m0 0h90v11l-76-1-11-7z" fill="#475770"/>
<path transform="translate(90,447)" d="m0 0h91l-5 4-9 5-2 1h-76v-9z" fill="#475770"/>
<path transform="translate(127,464)" d="m0 0h24l-1 3-10 6-3 1h-48l-1-1v-8z" fill="#475770"/>
<path transform="translate(651,464)" d="m0 0h60v10h-47l-14-8z" fill="#475770"/>
<path transform="translate(121,481)" d="m0 0 3 1-3 3-6 2h-26l-1-5z" fill="#475770"/>
<path transform="translate(678,481)" d="m0 0 34 1-1 5h-25l-8-5z" fill="#475770"/>
<path transform="translate(90,495)" d="m0 0h11v2l-11 5h-1v-6z" fill="#475770"/>
<path transform="translate(709,495)" d="m0 0h2l1 4-3 1-6-2v-2z" fill="#475770"/>
</svg>
