<?xml version="1.0" encoding="UTF-8"?>
<svg version="1.1" viewBox="0 0 800 800" width="200" height="200" xmlns="http://www.w3.org/2000/svg">
<path transform="translate(0)" d="m0 0h800v800h-800z" fill="#FDFDFD"/>
<path transform="translate(584,379)" d="m0 0h94l10 3 11 10 5 9 2 5v11l-3 27-4 24-7 27-7 20-11 24-10 19-9 14-13 18-13 16-7 7-7 8-12 11-11 9-13 10-20 13-22 12-17 8-28 10-24 6-25 4-16 2h-41l-25-3-29-6-26-8-22-9-17-8-17-10-12-8-11-8-16-13-8-7-1-3 13-12 10-11 8-7 6-4 5 1 13 10 18 12 15 9 23 11 19 7 23 6 16 3 17 2h37l28-4 25-6 17-6 19-8 21-12 22-15 12-11 8-7 11-11 8-10 10-13 11-17 12-23 7-18 7-23 6-31h-77l-2 7-7 21-7 16-6 12-8 12-11 14-16 16-16 12-13 8-19 9-18 6-22 5-24 1-18-1-26-6-19-7-16-8-13-9-12-9-3-3 2-4 8-7 19-19 7-5h6l16 9 24 9 14 3 10 1 21-1 22-6 17-8 12-8 12-11 8-9 9-14 7-15 3-11-98-1-5-5-2-3v-7l7-8 6-7 6-5 7-8 7-7 5-4z" fill="#6CF6D0"/>
<path transform="translate(386,108)" d="m0 0h40l26 3 24 5 15 4 21 7 27 12 19 10 27 18 11 9 14 12 9 8-1 4-28 28-8 5-6-1-13-11-17-13-19-12-16-8-18-8-15-5-24-6-26-4h-43l-15 2-25 5-20 6-24 10-17 9-21 14-12 9h-2l-2 4-4 2-7 8-7 7-5 4-3 5-3 1-2 5-14 19-9 16-8 16-8 19-7 24-6 30 77-1 3-9 6-20 7-17 9-16 12-16 9-10 10-10 12-9 15-10 21-10 18-6 20-4 20-2 15 1 21 3 16 4 21 8 17 9 14 10 14 11 4 4-1 4-27 27-7 5h-6l-10-6-10-7-19-9-13-4-18-3h-15l-18 3-21 7-16 9-13 10-9 9-9 13-8 16-5 13-3 14-1 36-6 7-4 2-10 1h-135l-12-2-12-7-6-9-3-7-1-6v-11l2-22 5-29 6-24 7-21 6-15 8-16 12-21 10-14 8-11 11-13 15-16 8-8 11-9 18-14 22-14 29-15 27-10 24-7 19-4z" fill="#0761FE"/>
<path transform="translate(446,380)" d="m0 0h118l32 1 4 2-4 3h-3v2l-4 1-2 6 5 6-4 8-2 6h-2l1 6 1 3 2 2 1 3 4 4h-21l-4 16-9 24-8 16-9 14-11 14-16 16-16 12-13 8-19 9-18 6-22 5-24 1-18-1-26-6-19-7-16-8-13-9-12-9-3-3 2-4 8-7 19-19 7-5h6l16 9 24 9 14 3 10 1 21-1 22-6 17-8 12-8 12-11 8-9 9-14 7-15 3-11-98-1-5-5-2-3v-7l7-8 6-7 6-5 7-8 7-7z" fill="#3CD3EB"/>
<path transform="translate(403,240)" d="m0 0 15 1 21 3 16 4 21 8 17 9 14 10 14 11 4 4-1 4-27 27-7 5h-6l-10-6-10-7-19-9-13-4-18-3h-15l-18 3-21 7-16 9-13 10-9 9-9 13-8 16-5 13-3 14-1 36-6 7-4 2-10 1h-135l-12-2-10-6 3-1v-3l4 1-1 2v2h3l5-4h20l1-2 1-7 6-4-3-2 7-8 3 2v-10h-3-2l-2-6-4-2 2-5 4-9 2-13 3-4-2 13-2 11 77-1 3-9 6-20 7-17 9-16 12-16 9-10 10-10 12-9 15-10 21-10 18-6 20-4z" fill="#0A85F5"/>
<path transform="translate(239,589)" d="m0 0 5 1 13 10 18 12 15 9 23 11 19 7 23 6 16 3 17 2h37l28-4 25-6 17-6 19-8 21-12 21-14v3l-13 10-9 5-8 5-12 6-6 4-4 2-2 4-8 5 3-1v5l-5 3-4 4-4 2-2 5-2 4-5 5-9 8-1 6-4 3h-4l-1 1 1 5-6 6 16-2h5l-4 2-25 4-16 2h-41l-25-3-29-6-26-8-22-9-17-8-17-10-12-8-11-8-16-13-8-7-1-3 13-12 10-11 8-7z" fill="#57E5DB"/>
<path transform="translate(446,380)" d="m0 0h118l32 1 4 2-4 3h-3v2l-4 1-2 6 5 6-4 8-2 6h-2l1 6 1 3 2 2 1 3 4 4h-21l-4 16-4 11-3 3-1 2h-15l-7 1-2 1-5-1-17 1-10-2 2-10 6-15 1-5-98-1-5-5-2-3v-7l7-8 6-7 6-5 7-8 7-7z" fill="#3CD3EB"/>
<path transform="translate(386,108)" d="m0 0h40l26 3 24 5 15 4 21 7 27 12 19 10 27 18 11 9 14 12 9 8-1 4-28 28-8 5-6-1-13-11-17-13-19-12-16-8-18-8-15-5-24-6-26-4h-43l-15 1v-2l18-2 30-2v-1l7-1 3-3 1-6-4-3 5-2 5 1v-2l7-5 2-5v-3l-4-4 1-4-4-1 1-3h4l1-6-25-2-32-1z" fill="#0B86F5"/>
<path transform="translate(584,379)" d="m0 0h94l10 3 11 10 5 9 2 5v11l-2 20-3-1 1-5h-2v5l-7-1-1 5h-2l-1 5-4 4-6 7-4 2-4 4-3 7-3-2-5 6-2-2-2 5-4 4h-2l-1 2-2 2-3 7-1 2h-2l-1 7-2 3h-2l-3 9-4 4-3-1 2-6 6-14 9-29 6-31-77-1v-1l18-1-2-4-3-3-2-8 1-2h2l2-7 3-7-5-6 3-6 4-1v-2l5-3-2-1-32-1v-1z" fill="#58E6DA"/>
<path transform="translate(377,109)" d="m0 0h41l25 2 1 2-2 5-4 1-1 2 4 1 1 6 3 2-1 5-3 5-4 3h-2v2h-7l-2 1 4 3-2 7-3 3-3 2-46 3h-6v3l-25 5-20 6-24 10-17 9-1-2 3-2-1-2 5-2 1-2-2-1 1-2h-11l-6 3h-2l1-3 8-5 3-1 2-4 11-9 10-8 1-2-9 4-8 4-8 1 4-5 5-3-2-1 1-4h2l2 2 5-6v-5l23-9 7-3 7-7 3-2v-3l-3-2 19-4z" fill="#0770FB"/>
<path transform="translate(239,589)" d="m0 0 5 1 13 10 18 12 15 9 23 11 19 7 21 6v2l3 1v2l-5 3h-9l-7 1-1 7-10 9-3 5-1 3 4 6 5 3 1 7-12-1-20-7-18-8-16-8-14-8-12-8-11-8-16-13-8-7-1-3 13-12 10-11 8-7z" fill="#3CD3EB"/>
<path transform="translate(214,252)" d="m0 0 4 1-13 18-10 16-8 15-10 24-7 24-4 10-2 13-4 9-2 5 5 5v3l4-2 2 2v10h-3l-1-1-6 7 3 3-5 3h-2v8l-2 2h-20l-3 3-3 2-3-2-1-3 1-1-2-1v3h-5l-6-9-3-7-1-6v-11l2-22 5-29 6-24 4-12h3l-1 5-4 14-1 3-1 11 6-2 1-4 12-12h2l2-5 5-5 6-4 5-5 5-2 5-6h3l1 3 5-2 5-9 7-11 7-8 9-10 4-5z" fill="#0871FB"/>
<path transform="translate(562,460)" d="m0 0 1 3-7 16-6 12-8 12-11 14-16 16-16 12-13 8-19 9-1-2 18-9 5-3v-1l-9 3-8 3h-6l-2-1-7 1-3-4 4-4 2-6 5-5 5-6 8-7 6-7h2l4-8h2l1-7 3-3h2l1-9 5-1v-2l5-2 11-6 2-3 5-1h8l9-3 6 1 2 4v6h2l2-6 5-13z" fill="#57E5DB"/>
<path transform="translate(546,143)" d="m0 0 12 6 27 18 11 9 14 12 9 8-1 4-28 28-8 5-6-1-13-11-9-7 2-1v-2l2-1-3-6-6-5-1-3 5 1 7 3-1-5 4-2h3v-2l-8-1 2-2 5 1 2 1v-5l2-3h3v-5l3-3 1-7h-2v-3h-6l-4-2v-2l-5-2-1-4h-2l-5-5-5-4z" fill="#0E94F2"/>
<path transform="translate(481,259)" d="m0 0 12 6 14 10 14 11 4 4-1 4-27 27-7 5h-6l-10-6-1-2h3l-2-4-4-6-9-6v-2l-5-1-7-3-2-5 10 3 9 3-1-2-5-2 3-3 10-1 1-6 2-10 6 2v-2l-6-2-5-5 2-1v2h14l-2-5-4-1z" fill="#0D93F2"/>
<path transform="translate(515,433)" d="m0 0h56l-2 12-5 15-3 3-1 2h-15l-7 1-2 1-5-1-17 1-10-2 2-10 6-15z" fill="#38A4D2"/>
<path transform="translate(556,600)" d="m0 0v3l-13 10-9 5-8 5-12 6v-3l21-12z" fill="#58E6DA"/>
<path transform="translate(480,316)" d="m0 0 11 3 2 1v4l-3 2h-6l-10-6-1-2h5z" fill="#1495F2"/>
<path transform="translate(324,262)" d="m0 0 2 1-4 5-10 8-6 2-2-2 5-4z" fill="#158FF4"/>
<path transform="translate(587,571)" d="m0 0 2 2-10 9-8 9-3 1-5 5-5 4v-3l11-10 8-7z" fill="#58E6DA"/>
<path transform="translate(124,308)" d="m0 0h3l-1 5-4 14-3 1-1 8-2 1 4-17z" fill="#138BF5"/>
<path transform="translate(516,434)" d="m0 0h25v1l-16 1-5 5-6 1 1-6z" fill="#0983F6"/>
<path transform="translate(147,302)" d="m0 0 3 1-1 2h-2v3h-2l-1 6-3 2v-2h-2v-8h6z" fill="#076FFC"/>
<path transform="translate(205,185)" d="m0 0 2 1-11 12-10 10-2-1 12-13z" fill="#1B98F2"/>
<path transform="translate(167,356)" d="m0 0 1 3-4 22h-3l3-15 2-8z" fill="#21A7ED"/>
<path transform="translate(600,555)" d="m0 0 2 2-8 10-3 3h-2l2-4z" fill="#5AE8D9"/>
<path transform="translate(299,375)" d="m0 0 1 2-3 14h-2v-10z" fill="#21ABED"/>
<path transform="translate(612,538)" d="m0 0 2 2-7 10-5 5v-3l8-11z" fill="#58E6DB"/>
<path transform="translate(308,274)" d="m0 0m-1 1m-1 1m-4 1h4v2l-8 7-3 2 1-4z" fill="#0E80F8"/>
<path transform="translate(503,533)" d="m0 0 1 2h2l1-2 1 2-5 5-4 1 2-7z" fill="#3CD3EC"/>
<path transform="translate(124,308)" d="m0 0h3l-1 5-5 9-1-2z" fill="#128DF6"/>
<path transform="translate(625,515)" d="m0 0 1 2 2 1-2 3h-2l-2 6h-3z" fill="#58E6DA"/>
<path transform="translate(122,425)" d="m0 0 4 1-1 2v2l2 1v2l-5-2-3-3h3z" fill="#1598F3"/>
</svg>
