<?xml version="1.0" encoding="UTF-8"?>
<svg version="1.1" viewBox="0 0 800 800" width="200" height="200" xmlns="http://www.w3.org/2000/svg">
<path transform="translate(0)" d="m0 0h800v800h-800z" fill="#171716"/>
<path transform="translate(413,372)" d="m0 0h19l13 4 10 6 10 9 3 1 9-9 11-7 9-3 6-1h15l12 3 10 5 10 9 6 10 4 11 1 7v52l-2 3h-10l-1-2-1-50-3-14-6-10-10-7-10-3h-14l-13 4-10 9-5 10-2 11-1 49-2 3h-9l-2-3-1-50-2-11-5-9-5-6-12-6-4-1h-16l-10 3-10 7-6 10-2 6-1 7-1 49-1 3-2 1h-8l-2-4v-53l3-12 5-10 10-11 12-7z" fill="#FEFDFB"/>
<path transform="translate(699,383)" d="m0 0 13 1 10 4 8 6 6 8 4 8 2 8v10l-3 11-6 10-7 7-12 6-4 1h-14l-11-4-9-7-6-7-5-12v-19l4-11 7-9 8-6 9-4z" fill="#171716"/>
<path transform="translate(185,324)" d="m0 0 7 1 2 2 1 5v62l1 17h6l21-9 12-18 9-12 1-1 7 1 3 3-1 6-11 17 1 5 8 4 11 6 5 4 8 11 5 13 1 6v21l-3 4h-7l-3-5-1-17-3-12-5-9-7-6-9-4-4-1h-16l-10 3-9 6-6 9-3 8-1 7-1 17-4 4-7-1-2-4v-137l3-5z" fill="#FEFBF8"/>
<path transform="translate(697,371)" d="m0 0h13l12 3 12 7 5 5 3-9 2-2 7 1 2 2 1 6v66l-1 23-2 2h-8l-2-2-1-4v-9l-13 10-11 4-4 1h-18l-10-3-11-6-7-6-9-14-4-13v-19l3-11 5-10 9-10 10-7 11-4zm2 12-9 2-9 5-8 7-5 8-3 9v19l5 12 9 10 8 5 9 3h14l11-4 8-6 7-8 4-8 2-9v-10l-4-13-8-11-8-6-10-4z" fill="#FEFCFA"/>
<path transform="translate(56,325)" d="m0 0h10l5 3 4 4 1 3 1 16 9 10 7 8 9 10h12l11-14v-12l4-5 4-2h7l5 4 2 4v6l-3 5-7 3-5 2-9 14-1 3 2 13 11 1 5 4 1 7-3 5-6 2-6-3-2-3-1-7-6 1-4 2-1 7v30l7 10v7l-6 7-9 1-6-4-2-3v-9l6-8 1-2v-35l-6-5-7 1-5 5-3 6-4 3h-7l-6-5v-8l4-5 2-1h7l5 1 9-7 2-4-1-7-11-14-12-13-2-1-13-2-6-5-3-8 2-9z" fill="#E1944B"/>
<path transform="translate(605,372)" d="m0 0 7 1 2 2 1 7v81l-1 8-5 2-6-1-2-5v-90z" fill="#FCF7F1"/>
<path transform="translate(321,372)" d="m0 0h8l3 3v89l-2 7-2 1h-7l-3-7v-36l1-54z" fill="#FDF9F5"/>
<path transform="translate(606,343)" d="m0 0 6 1 2 2v7l-2 2h-8l-2-3 1-7z" fill="#FDFAF6"/>
<path transform="translate(322,343)" d="m0 0h7l2 2v7l-4 3-5-1-3-3 1-7z" fill="#FDFAF6"/>
</svg>
