<?xml version="1.0" encoding="UTF-8"?>
<svg version="1.1" viewBox="0 0 800 800" width="200" height="200" xmlns="http://www.w3.org/2000/svg">
<path transform="translate(0)" d="m0 0h800v800h-800z" fill="#FDFDFD"/>
<path transform="translate(243,243)" d="m0 0h326l9 3 7 6 3 7v241l-3 9-8 7-4 2h-163l-3-1-1-2-1-12-1-116-3-6-4-4-5-1-167-1-2-1v-116l3-6 8-7z" fill="#DF0031"/>
<path transform="translate(189,393)" d="m0 0h181l10 2 7 7 1 2 1 131-1 8-9 9-4 1-13 1h-38l-139-1-6-4-5-6-1-37v-68l1-34 7-8z" fill="#1681F8"/>
</svg>
