<?xml version="1.0" encoding="UTF-8"?>
<svg version="1.1" viewBox="0 0 800 800" width="200" height="200" xmlns="http://www.w3.org/2000/svg">
<path transform="translate(0)" d="m0 0h800v800h-800z"/>
<path transform="translate(256,372)" d="m0 0 12 1 12 5 9 8 7 12 5 14 1-2 5 1 1-36h18v7l15-7 7-1h11v17l-1 1-14 1-8 4-8 9-1 3 49-1 11-2 34-1-1-5-4-5-7-2-38-1-2-1v-16l1-1h32l15 2 12 5 7 7 4 10 2 11-1 47-1 1-16 1-2-2v-4l-13 6-4 1h-22l-10-4-7-6-4-8-1-5v-7l1-5-36-1v33l-1 1h-17l-1-1v-35l-5 1-54 1h-14l3 8 4 5 8 4 3 1h12l10-4 3-4h20l-1 4-6 9-10 8-10 4-4 1h-17l-10-3-10-6-8-9-5-10-2-11-19-1-41-1-7-1 2-3 7-1 58-1 2-12 6-11 7-8 14-7z" fill="#FDFEFD"/>
<path transform="translate(122,340)" d="m0 0h65l12 3 9 6 6 7 4 11v16l-4 10-6 8-9 6-9 2-48 1v2l3 3 2 1-5 1-1 39h-19z" fill="#FEFFFE"/>
<path transform="translate(548,373)" d="m0 0 16 1 10 4 9 6 7 9 4 8 2 9v13l-3 11-6 10-8 8-12 6-11 2h-9l-10-2-12-6-9-9-8-16-1-14 4-14 6-10 8-8 12-6z" fill="#FEFFFE"/>
<path transform="translate(647,373)" d="m0 0 13 1 10 4 8 7 5 7 3 10v55l-1 1h-17l-1-1-1-53-5-8-6-4-11-1-9 3-5 4-5 10-1 6-1 43-1 1h-17l-1-9 1-73h18l2 5 8-5 6-2z" fill="#FEFFFE"/>
<path transform="translate(458,355)" d="m0 0h19v20h25l1 1v15l-25 1v42l2 5 14 2h8l1 1v15h-24l-9-3-7-6-4-8-1-4v-42l1-2h-14l-2-1v-15l1-1h14z" fill="#FEFFFE"/>
<path transform="translate(549,390)" d="m0 0 12 1 8 5 6 8 2 5v15l-5 10-7 6-9 3h-9l-9-4-5-4-4-8-1-4v-13l3-9 4-5 6-4z" fill="#213231"/>
<path transform="translate(142,357)" d="m0 0h37l11 2 6 5 3 7v8l-4 8-6 4-3 1h-45v-34z" fill="#010202"/>
<path transform="translate(549,390)" d="m0 0 12 1 8 5 6 8 2 5v15l-5 10-7 6-9 3h-9l-9-4-5-4-2-3v-4l6 1 9 5h12l8-5 4-8v-10l-3-6-6-5-6-2-9 1-11 5h-4l1-4 5-5 4-3z" fill="#030404"/>
<path transform="translate(509,403)" d="m0 0 1 2-2 8 1 15h-32v-24z" fill="#213231"/>
<path transform="translate(386,423)" d="m0 0h36l-1 9-3 5-10 6-5 1h-12l-8-4-3-4v-9l3-3z" fill="#010202"/>
<path transform="translate(251,389)" d="m0 0h11l8 3 7 8 3 5v2l-7 1h-37l-3-1 2-5 4-6 6-5z" fill="#030505"/>
<path transform="translate(453,405)" d="m0 0h5v23l-17-1v-21z" fill="#213231"/>
<path transform="translate(121,340)" d="m0 0h1v116h-1v-39h-13l-37-2v-2h49z" fill="#354443"/>
<path transform="translate(142,409)" d="m0 0h47l-2 1v2h20v1l-51 1-6 1-3 1h-3v-3l-3-1z" fill="#213231"/>
<path transform="translate(71,413)" d="m0 0h40l8 1 1 3h-12l-37-2z" fill="#374645"/>
<path transform="translate(386,423)" d="m0 0h36v6l-2-2-19-1-15-2z" fill="#203130"/>
<path transform="translate(107,413)" d="m0 0 12 1 1 3h-12l-2-2z" fill="#213231"/>
</svg>
